<svg width="58" height="70" viewBox="0 0 58 70" fill="none" xmlns="http://www.w3.org/2000/svg">
<path d="M18.4864 54.6637L18.4864 54.6637C13.8837 52.7502 9.88537 49.617 6.91757 45.5992C3.94982 41.5815 2.1238 36.8299 1.63362 31.8519C1.14345 26.8738 2.00743 21.8551 4.13375 17.3314C6.26009 12.8076 9.56928 8.94802 13.7089 6.16538C17.8487 3.3827 22.6632 1.78166 27.6387 1.53388C32.6142 1.28611 37.5629 2.40096 41.9564 4.75889C46.3498 7.11679 50.0227 10.629 52.5837 14.9196C55.1448 19.2103 56.4981 24.1187 56.5 29.121L55 29.1216L56.5 29.1217C56.4998 34.5786 54.8914 39.9138 51.877 44.4542C48.8625 48.9947 44.5767 52.5372 39.5594 54.6336L39.5481 54.6383L39.5367 54.6429C38.2844 55.1422 37.246 56.0708 36.6063 57.2666C36.6062 57.2667 36.6061 57.2669 36.606 57.267L31.594 66.6448L31.5926 66.6475C31.3412 67.1156 30.9679 67.5077 30.5115 67.7814C30.055 68.0552 29.5327 68.2 29 68.2C28.4673 68.2 27.945 68.0552 27.4885 67.7814C27.0321 67.5078 26.6589 67.1157 26.4075 66.6476L18.4864 54.6637ZM18.4864 54.6637L18.4975 54.6682M18.4864 54.6637L18.4975 54.6682M18.4975 54.6682C19.7274 55.168 20.7478 56.0829 21.3824 57.2579L21.3824 57.2579M18.4975 54.6682L21.3824 57.2579M21.3824 57.2579L21.3877 57.2676M21.3824 57.2579L21.3877 57.2676M21.3877 57.2676C22.2584 58.8515 23.3875 60.9773 24.4581 62.9931M21.3877 57.2676L24.4581 62.9931M24.4581 62.9931C25.1634 64.3211 25.8433 65.6013 26.4074 66.6475L24.4581 62.9931Z" fill="#25BA8D" stroke="white" stroke-width="3"/>
<circle cx="29" cy="29" r="20" fill="white"/>
<path d="M29 19C34.5125 19 39 23.4875 39 29C39 34.5125 34.5125 39 29 39C23.4875 39 19 34.5125 19 29C19 23.4875 23.4875 19 29 19ZM29 16.5C22.1 16.5 16.5 22.1 16.5 29C16.5 35.9 22.1 41.5 29 41.5C35.9 41.5 41.5 35.9 41.5 29C41.5 22.1 35.9 16.5 29 16.5Z" fill="#02AF86"/>
</svg>
