<svg width="14" height="14" viewBox="0 0 14 14" fill="none" xmlns="http://www.w3.org/2000/svg">
<path d="M13.6734 12.8202L10.8667 10.0135C11.7 8.9935 12.2067 7.68683 12.2067 6.26683C12.2067 2.9935 9.54671 0.333496 6.27337 0.333496C3.00004 0.333496 0.333374 3.00016 0.333374 6.26683C0.333374 9.5335 2.99337 12.2002 6.26671 12.2002C7.68671 12.2002 8.99337 11.7002 10.0134 10.8602L12.82 13.6668L13.6667 12.8202H13.6734ZM6.26671 11.0002C3.65337 11.0002 1.53337 8.88016 1.53337 6.26683C1.53337 3.6535 3.66004 1.5335 6.26671 1.5335C8.87337 1.5335 11 3.6535 11 6.26683C11 8.88016 8.88004 11.0002 6.26671 11.0002V11.0002Z" fill="#02AF86"/>
<path d="M6.86668 2.93335H5.66668V5.66668H2.93335V6.86668H5.66668V9.60002H6.86668V6.86668H9.60002V5.66668H6.86668V2.93335Z" fill="#02AF86"/>
</svg>
